<?xml version="1.0" standalone="no"?>
<!DOCTYPE svg PUBLIC "-//W3C//DTD SVG 20010904//EN"
 "http://www.w3.org/TR/2001/REC-SVG-20010904/DTD/svg10.dtd">
<svg  version="1.0" xmlns="http://www.w3.org/2000/svg"
 width="1350.000000pt" height="759.000000pt" viewBox="0 0 1350.000000 759.000000"
 preserveAspectRatio="xMidYMid meet">
<metadata>
Created by potrace 1.10, written by Peter Selinger 2001-2011
</metadata>
<g transform="translate(0.000000,759.000000) scale(0.100000,-0.100000)"
fill="white" stroke="white" stroke-width="7">
<path d="M774 7448 c-17 -12 -41 -36 -53 -53 -20 -30 -21 -42 -21 -324 l0
-293 56 -54 56 -55 899 1 c494 1 903 -1 908 -4 6 -4 5 -21 -1 -44 -6 -20 -8
-61 -5 -89 6 -57 -6 -74 -48 -70 -15 2 -21 -5 -23 -25 -2 -16 0 -28 5 -28 4 0
34 -24 66 -54 39 -35 55 -56 47 -61 -6 -4 -54 -4 -105 0 l-93 7 -41 -41 -41
-41 0 -227 0 -228 41 -37 42 -38 248 0 c159 0 249 4 249 10 0 6 6 10 13 10 17
0 50 37 65 73 8 18 12 91 12 210 0 207 -9 247 -64 285 -30 20 -43 22 -131 20
-71 -2 -99 0 -102 10 -3 6 0 12 5 12 5 0 36 24 67 54 61 57 68 86 21 86 -33 0
-38 20 -34 128 l3 84 887 -2 888 -1 39 23 c21 12 48 36 60 53 20 30 21 41 21
335 l0 304 -42 43 -42 43 -1911 0 -1910 0 -31 -22z m3866 -48 c19 -19 20 -33
20 -324 l0 -305 -34 -26 -33 -25 -1887 0 -1886 0 -35 31 -35 32 0 289 0 288
27 30 26 30 1909 0 c1895 0 1908 0 1928 -20z m-1868 -843 c-3 -94 -1 -115 12
-126 9 -7 16 -17 16 -21 0 -14 -78 -90 -92 -89 -14 0 -88 84 -88 101 0 5 9 12
21 15 20 6 21 11 17 119 l-3 114 60 0 60 0 -3 -113z m200 -324 c16 -14 18 -39
18 -238 0 -193 -2 -224 -16 -236 -20 -17 -447 -21 -506 -6 l-38 10 0 227 c0
205 2 228 18 243 22 20 115 25 342 20 132 -4 168 -7 182 -20z"/>
<path d="M1093 7181 c-12 -10 -28 -34 -36 -54 -13 -30 -13 -41 -2 -73 22 -66
92 -96 128 -56 28 31 21 42 -27 42 -31 0 -46 5 -50 16 -12 30 -6 61 15 80 16
15 24 16 39 6 16 -10 21 -9 30 9 24 45 -51 68 -97 30z"/>
<path d="M1603 7190 c-20 -8 -23 -16 -23 -72 0 -35 -3 -72 -6 -83 -3 -11 1
-28 9 -39 13 -17 14 -17 31 -1 11 12 15 26 12 41 -5 19 -1 23 27 29 17 4 40
17 49 28 l16 22 8 -30 c4 -17 10 -35 15 -40 4 -6 9 -31 11 -55 2 -33 8 -46 20
-48 12 -2 19 5 23 25 4 15 10 36 16 45 5 10 9 29 9 43 0 29 34 53 47 33 4 -7
6 -26 4 -41 -3 -33 23 -67 51 -67 22 0 23 18 3 44 -19 26 -19 60 0 76 14 12
14 15 0 30 -8 9 -15 22 -15 28 0 16 -27 15 -37 0 -4 -7 -21 -20 -38 -28 -16
-9 -36 -28 -43 -43 -16 -33 -32 -26 -32 14 0 24 -4 29 -25 29 -15 0 -25 6 -25
14 0 18 -47 56 -69 55 -9 0 -26 -4 -38 -9z m62 -64 c0 -22 -14 -29 -34 -17
-19 12 -6 43 16 39 10 -2 18 -12 18 -22z"/>
<path d="M1967 7193 c-3 -7 -1 -171 2 -195 1 -5 8 -8 16 -8 11 0 15 12 15 49
0 52 8 65 34 55 10 -4 16 -22 18 -52 2 -34 7 -47 18 -47 11 0 16 13 17 50 3
59 -15 89 -55 90 -20 0 -27 5 -28 20 -2 40 -4 45 -18 45 -8 0 -17 -3 -19 -7z"/>
<path d="M2572 7191 c-9 -5 -12 -34 -10 -102 3 -80 6 -94 21 -97 14 -3 17 4
17 47 0 39 4 51 15 51 8 0 15 -8 16 -17 1 -22 31 -75 44 -80 24 -7 33 18 40
105 l7 94 -23 -4 c-22 -3 -24 -7 -22 -56 2 -48 1 -51 -13 -37 -8 8 -20 15 -25
15 -5 0 -9 10 -9 23 0 29 -40 69 -58 58z"/>
<path d="M3083 7193 c-9 -3 -13 -29 -13 -79 0 -58 -3 -74 -14 -74 -22 0 -28
-17 -14 -40 32 -50 64 -8 72 96 6 83 -2 108 -31 97z"/>
<path d="M3644 7166 c-36 -36 -45 -82 -23 -128 11 -24 60 -58 85 -58 22 0 65
31 73 53 7 18 10 16 46 -17 44 -42 57 -44 86 -15 l21 21 22 -21 c27 -25 44
-26 74 -5 20 14 21 21 16 72 -4 31 -12 60 -18 64 -19 13 -63 9 -76 -7 -11 -13
-8 -17 19 -26 38 -13 41 -29 5 -29 -15 0 -32 -7 -38 -15 -16 -22 -66 -24 -79
-3 -15 22 7 48 40 48 18 0 24 5 21 17 -6 31 -88 29 -88 -2 0 -29 -20 -24 -36
10 -20 44 -59 75 -91 75 -15 0 -39 -14 -59 -34z m99 -46 c14 -23 15 -34 7 -49
-16 -30 -40 -41 -67 -28 -42 19 -21 107 26 107 9 0 25 -13 34 -30z"/>
<path d="M4308 7188 c-2 -7 -2 -55 0 -105 4 -93 14 -113 39 -80 15 18 15 180
0 189 -18 11 -34 10 -39 -4z"/>
<path d="M2901 7162 c-15 -27 -3 -142 17 -164 19 -22 52 -23 52 -3 0 9 -9 28
-20 43 -22 30 -19 62 6 62 21 0 17 16 -15 51 -28 30 -29 31 -40 11z"/>
<path d="M1257 7154 c-4 -4 -7 -15 -7 -25 0 -10 -9 -21 -20 -24 -11 -3 -20
-12 -20 -20 0 -8 9 -17 20 -20 13 -4 20 -15 20 -31 0 -22 4 -25 28 -22 21 2
26 7 24 25 -2 17 3 24 22 29 33 8 34 30 2 38 -15 4 -26 14 -28 28 -3 23 -27
35 -41 22z"/>
<path d="M1400 7135 c0 -18 -6 -29 -20 -32 -26 -7 -26 -29 1 -36 13 -4 19 -12
18 -24 -2 -10 0 -23 4 -30 12 -19 37 -3 37 23 0 17 6 24 19 24 10 0 24 7 31
15 11 13 8 17 -18 27 -19 7 -32 20 -34 32 -2 12 -11 22 -20 24 -14 3 -18 -3
-18 -23z"/>
<path d="M2135 7126 c-13 -10 -18 -26 -18 -61 0 -38 4 -51 24 -66 13 -10 31
-19 39 -19 8 0 26 9 39 19 20 15 24 28 24 66 0 53 -18 75 -63 75 -14 0 -35 -6
-45 -14z m70 -37 c13 -19 -4 -59 -25 -59 -12 0 -22 9 -26 24 -7 31 1 46 26 46
10 0 22 -5 25 -11z"/>
<path d="M2287 7133 c-15 -4 -17 -14 -15 -71 2 -52 6 -67 18 -67 10 0 16 13
18 42 3 42 23 70 42 58 5 -3 10 -28 10 -54 0 -53 7 -66 27 -50 17 14 18 120 1
137 -12 12 -65 14 -101 5z"/>
<path d="M2780 7127 c-21 -10 -26 -21 -28 -60 -3 -40 1 -51 20 -67 49 -41 80
-19 93 66 6 36 3 44 -17 58 -27 19 -35 20 -68 3z m48 -49 c-7 -19 -38 -22 -38
-4 0 10 9 16 21 16 12 0 19 -5 17 -12z"/>
<path d="M3164 7126 c-18 -14 -18 -15 9 -25 16 -6 33 -11 38 -11 5 0 9 -4 9
-9 0 -6 -17 -11 -37 -13 -30 -2 -39 -8 -41 -25 -2 -12 6 -31 18 -43 18 -18 27
-20 58 -13 37 9 37 9 40 68 3 47 0 62 -14 72 -23 17 -56 16 -80 -1z"/>
<path d="M3289 7128 c-2 -21 1 -42 10 -63 5 -11 13 -32 20 -47 16 -42 61 -31
61 14 0 11 10 32 22 48 17 24 19 32 8 45 -18 21 -29 19 -36 -9 -5 -20 -33 -44
-38 -34 -1 2 -7 15 -14 31 -12 28 -31 36 -33 15z"/>
<path d="M3447 7133 c-14 -14 -6 -31 18 -37 32 -8 32 -26 0 -26 -35 0 -50 -33
-29 -65 19 -29 49 -32 82 -9 17 12 22 25 22 60 0 63 -13 84 -54 84 -18 0 -36
-3 -39 -7z"/>
<path d="M4100 7130 c-11 -6 -15 -24 -14 -65 2 -92 40 -104 46 -15 2 25 8 45
13 45 6 0 11 -20 13 -45 2 -25 7 -49 13 -54 15 -16 33 11 31 48 -3 34 18 63
38 51 5 -3 10 -28 10 -56 0 -35 4 -49 14 -49 8 0 17 8 20 17 8 19 -3 122 -13
124 -35 7 -159 6 -171 -1z"/>
<path d="M2480 7034 c-14 -16 -4 -54 15 -54 16 0 47 39 40 50 -9 15 -45 18
-55 4z"/>
<path d="M2656 6080 c-25 -28 -36 -50 -36 -70 0 -34 36 -90 57 -90 7 0 13 -4
13 -10 0 -16 48 -12 75 6 44 29 26 57 -28 47 -31 -6 -67 19 -67 46 1 40 67 80
85 51 12 -19 25 -10 25 19 0 31 -14 41 -60 41 -20 0 -38 -11 -64 -40z"/>
<path d="M6924 7455 c-10 -8 -27 -15 -37 -15 -9 0 -32 -8 -50 -18 -114 -62
-194 -145 -247 -257 l-40 -82 0 -1124 c1 -1090 1 -1125 20 -1164 11 -22 19
-46 20 -52 0 -7 4 -13 9 -13 5 0 11 -11 15 -23 6 -27 116 -144 161 -173 56
-35 95 -54 111 -54 8 0 22 -7 30 -15 14 -13 341 -15 2824 -15 2483 0 2810 2
2824 15 8 8 22 15 30 15 16 0 57 20 111 55 45 29 118 105 145 150 13 22 27 42
31 45 4 3 11 18 15 34 4 17 13 41 20 55 20 38 20 2250 1 2289 -8 15 -25 49
-38 77 -29 59 -30 61 -94 129 -57 60 -130 107 -212 136 -57 20 -79 20 -2843
20 -2434 0 -2789 -2 -2806 -15z m5621 -44 c3 -5 20 -13 38 -17 38 -8 119 -59
162 -100 47 -47 68 -76 93 -129 13 -28 27 -58 33 -67 12 -24 12 -2252 0 -2276
-6 -9 -20 -39 -33 -67 -51 -110 -162 -208 -260 -229 -16 -4 -28 -11 -28 -16 0
-7 -978 -10 -2804 -10 -2396 0 -2808 2 -2833 14 -15 8 -46 23 -67 33 -78 36
-161 117 -198 193 -58 121 -53 10 -53 1220 0 1210 -5 1100 53 1219 48 98 162
195 255 217 15 3 30 10 33 15 7 12 5601 12 5609 0z"/>
<path d="M9343 7193 c-21 -8 -15 -29 12 -41 23 -11 25 -17 25 -82 0 -55 3 -72
16 -77 26 -10 36 13 38 82 1 63 7 76 40 88 5 2 7 11 3 20 -5 13 -19 17 -64 16
-32 0 -64 -3 -70 -6z"/>
<path d="M9843 7193 c-26 -9 -13 -33 17 -33 19 0 30 5 30 14 0 15 -27 25 -47
19z"/>
<path d="M9736 7146 c-5 -22 -8 -23 -35 -13 -22 8 -36 8 -55 -1 -23 -10 -26
-17 -26 -66 0 -47 3 -56 26 -70 34 -23 59 -17 59 14 0 17 -6 25 -17 25 -24 0
-41 19 -36 41 2 13 15 21 41 25 20 3 39 4 42 1 3 -3 5 -23 5 -44 0 -55 46 -97
76 -69 5 5 20 11 34 13 24 3 25 7 25 63 l0 60 -32 0 c-19 0 -41 9 -55 23 -31
28 -44 28 -52 -2z m94 -91 c0 -24 -4 -47 -10 -50 -5 -3 -10 0 -10 8 0 8 -7 20
-15 27 -20 17 -19 47 2 59 26 14 33 5 33 -44z"/>
<path d="M9498 7133 c-29 -7 -21 -30 13 -37 37 -7 29 -26 -12 -26 -25 0 -29
-4 -29 -28 0 -34 35 -67 58 -56 10 4 22 8 27 9 25 2 35 19 35 61 0 66 -32 93
-92 77z"/>
<path d="M9934 7132 c-21 -14 -34 -70 -23 -101 13 -37 54 -60 77 -43 32 23 44
25 54 9 13 -24 45 -21 73 6 31 28 25 67 -11 67 -31 0 -31 18 1 30 42 16 25 40
-29 40 -44 0 -63 -50 -28 -76 24 -19 1 -33 -52 -30 -38 2 -41 4 -41 31 0 22 5
31 20 33 42 7 48 11 35 27 -13 16 -57 20 -76 7z"/>
<path d="M6978 6893 c-10 -2 -18 -9 -18 -14 0 -5 -7 -9 -15 -9 -21 0 -95 -76
-95 -97 0 -10 -7 -27 -15 -37 -22 -29 -22 -687 0 -730 8 -15 15 -34 15 -41 0
-15 44 -64 79 -87 24 -17 97 -18 1137 -18 l1112 0 46 41 c25 23 46 47 46 54 0
7 6 15 13 17 9 4 13 92 15 387 3 379 2 383 -19 419 -27 45 -75 92 -94 92 -7 0
-15 6 -17 13 -4 9 -231 12 -1089 13 -596 1 -1092 0 -1101 -3z m2183 -60 c39
-19 69 -50 69 -70 0 -7 5 -13 10 -13 6 0 10 -129 10 -368 0 -397 -2 -412 -54
-454 -20 -16 -94 -18 -1131 -17 l-1110 0 -27 24 c-16 13 -28 30 -28 38 0 7 -7
22 -15 33 -22 29 -22 686 1 735 27 60 30 64 70 86 l39 21 1066 1 c978 1 1069
0 1100 -16z"/>
<path d="M7264 6472 c-15 -10 -25 -177 -11 -191 18 -18 50 7 43 34 -5 20 -1
24 23 30 36 8 49 22 57 62 5 24 1 36 -15 52 -21 21 -74 28 -97 13z m74 -56 c5
-24 -10 -38 -31 -30 -20 7 -23 40 -4 47 19 8 32 2 35 -17z"/>
<path d="M8534 6465 c-4 -9 -2 -21 4 -27 15 -15 44 -1 40 19 -4 23 -36 29 -44
8z"/>
<path d="M7935 6419 c-24 -9 -55 -44 -55 -63 0 -7 7 -27 15 -44 31 -60 115
-47 139 22 18 49 -48 105 -99 85z m50 -69 c0 -18 -6 -26 -23 -28 -24 -4 -38
18 -28 44 3 9 15 14 28 12 17 -2 23 -10 23 -28z"/>
<path d="M8083 6420 c-26 -11 -41 -86 -24 -118 21 -39 91 -40 91 -2 0 13 -8
20 -27 22 -22 2 -28 8 -28 28 0 20 6 26 28 28 31 4 36 27 8 42 -22 11 -19 11
-48 0z"/>
<path d="M8350 6417 c-33 -16 -36 -40 -10 -65 l22 -20 -21 -11 c-32 -17 -123
-3 -119 18 2 9 11 15 21 14 9 -2 25 -4 34 -5 24 -4 28 30 6 54 -14 16 -26 19
-56 15 -48 -7 -48 -7 -54 -60 -4 -32 -1 -48 12 -60 25 -26 63 -32 84 -13 22
20 45 20 61 1 15 -18 34 -19 60 -3 15 10 26 10 52 0 26 -10 36 -9 55 3 29 19
30 51 2 65 -20 11 -20 12 -3 31 25 27 6 43 -41 35 -32 -6 -36 -10 -33 -34 2
-19 10 -28 26 -30 12 -2 22 -10 22 -18 0 -19 -46 -18 -54 1 -3 8 -15 15 -26
15 -24 0 -25 8 -3 32 14 16 15 21 2 33 -11 12 -19 12 -39 2z"/>
<path d="M8815 6423 c-31 -7 -45 -33 -45 -79 0 -24 -4 -46 -10 -49 -29 -18 16
-75 59 -75 51 0 104 59 66 74 -18 6 -19 43 -4 83 8 23 7 30 -7 40 -18 13 -25
14 -59 6z m25 -58 c0 -8 -6 -15 -14 -15 -17 0 -28 14 -19 24 12 12 33 6 33 -9z
m0 -83 c0 -14 -11 -21 -26 -15 -8 3 -11 9 -8 14 7 11 34 12 34 1z"/>
<path d="M7405 6408 c-13 -44 -14 -116 -1 -127 20 -17 36 8 33 55 -2 36 0 39
26 42 26 3 27 1 27 -37 0 -37 3 -43 34 -58 32 -15 37 -15 61 1 29 19 25 36 -8
36 -12 0 -29 5 -37 10 -22 15 7 32 32 19 25 -14 38 -3 38 31 0 24 -5 30 -31
35 -19 4 -41 2 -55 -6 -19 -10 -27 -10 -36 -1 -16 16 -78 15 -83 0z"/>
<path d="M7647 6413 c-9 -14 -11 -168 -4 -180 12 -19 37 -3 37 22 0 20 5 24
30 23 17 -1 35 3 41 9 16 16 22 76 10 106 -10 24 -15 27 -60 27 -27 0 -52 -3
-54 -7z m78 -63 c0 -18 -6 -26 -23 -28 -24 -4 -38 18 -28 44 3 9 15 14 28 12
17 -2 23 -10 23 -28z"/>
<path d="M7800 6400 c-6 -12 -10 -42 -8 -68 3 -39 6 -47 23 -47 16 0 21 8 23
44 3 33 8 44 23 48 10 3 19 14 19 24 0 28 -65 27 -80 -1z"/>
<path d="M8546 6409 c-8 -27 -14 -101 -9 -115 6 -17 33 -18 34 -1 7 63 -13
154 -25 116z"/>
<path d="M8622 6411 c-9 -5 -12 -26 -10 -67 3 -51 6 -59 23 -59 16 0 20 7 21
35 2 57 3 60 19 60 15 0 17 -4 19 -55 1 -23 6 -30 21 -30 25 0 31 35 16 87
-11 36 -14 38 -54 38 -23 0 -48 -4 -55 -9z"/>
<path d="M10378 6893 c-10 -2 -18 -9 -18 -14 0 -5 -8 -9 -19 -9 -10 0 -37 -21
-60 -46 l-41 -46 0 -402 0 -402 24 -33 c13 -18 39 -44 57 -57 l33 -24 1114 0
1114 0 54 56 54 55 0 399 c0 341 -2 401 -15 414 -8 8 -15 18 -15 22 0 14 -52
54 -95 74 -43 20 -63 20 -1107 19 -585 -1 -1071 -3 -1080 -6z m2188 -64 c24
-11 46 -29 49 -40 4 -10 11 -19 16 -19 5 0 9 -157 9 -395 l0 -396 -32 -34 -31
-35 -1113 0 -1112 0 -31 31 -31 31 0 393 c0 356 2 396 18 424 10 18 28 33 44
37 15 3 30 10 33 15 4 5 432 9 1072 9 1058 0 1067 0 1109 -21z"/>
<path d="M10822 6478 c-10 -12 -11 -69 -2 -190 0 -5 20 -8 44 -8 56 0 76 19
76 70 0 44 -20 70 -56 70 -16 0 -24 6 -24 18 0 10 -6 26 -13 36 -11 15 -15 16
-25 4z m83 -118 c8 -26 -1 -40 -26 -40 -22 0 -34 22 -25 45 8 22 44 18 51 -5z"/>
<path d="M11208 6475 c-19 -11 -28 -24 -28 -40 0 -14 5 -25 10 -25 15 0 12
-19 -5 -36 -19 -20 -19 -68 0 -84 9 -7 30 -12 48 -11 17 0 51 1 75 1 30 0 42
4 42 14 0 8 -5 18 -11 22 -6 3 -9 17 -6 30 2 13 -2 32 -9 41 -11 17 -13 16
-23 -9 -6 -16 -15 -28 -21 -28 -18 0 -11 45 10 63 11 9 20 23 20 31 0 34 -62
53 -102 31z m52 -50 c0 -8 -4 -15 -9 -15 -13 0 -22 16 -14 24 11 11 23 6 23
-9z m0 -95 c0 -6 -11 -10 -25 -10 -23 0 -34 18 -19 33 9 8 44 -11 44 -23z"/>
<path d="M10515 6454 c-20 -18 -29 -38 -33 -70 -6 -53 14 -88 61 -108 27 -11
37 -11 65 2 43 21 42 42 -4 42 -50 0 -74 15 -74 48 1 41 22 62 63 62 20 0 37
6 40 14 16 42 -75 50 -118 10z"/>
<path d="M11468 6470 c-9 -6 -26 -26 -38 -46 -51 -82 30 -184 116 -145 39 17
31 41 -14 41 -41 0 -72 23 -72 53 0 30 32 57 68 57 36 0 55 26 31 41 -19 12
-70 11 -91 -1z"/>
<path d="M11624 6420 c-24 -9 -54 -52 -54 -75 0 -9 6 -23 14 -31 8 -7 16 -18
18 -24 1 -5 17 -12 33 -16 22 -4 38 0 58 16 65 51 8 161 -69 130z m51 -70 c0
-18 -6 -26 -23 -28 -24 -4 -38 18 -28 44 3 9 15 14 28 12 17 -2 23 -10 23 -28z"/>
<path d="M12393 6420 c-12 -5 -26 -17 -31 -27 -10 -17 -12 -17 -34 5 -15 13
-37 22 -55 22 -25 0 -35 -7 -52 -35 l-20 -35 20 -35 c11 -19 29 -37 40 -40 22
-7 59 2 59 16 0 5 1 12 3 16 1 4 -11 10 -27 13 -46 8 -36 25 16 28 46 3 47 3
50 -30 2 -25 8 -34 26 -36 20 -3 22 1 22 43 0 40 3 47 25 55 22 8 24 13 15 30
-12 22 -23 24 -57 10z"/>
<path d="M10653 6413 c-20 -8 -15 -84 6 -113 15 -18 28 -24 55 -23 20 1 43 7
51 13 20 17 20 103 0 120 -22 19 -35 3 -35 -46 0 -31 -4 -44 -14 -44 -18 0
-25 20 -19 54 7 35 -13 52 -44 39z"/>
<path d="M10988 6409 c-14 -7 -18 -23 -18 -63 0 -47 3 -54 25 -64 34 -16 46
-15 74 5 23 15 23 17 6 29 -10 8 -29 11 -42 8 -16 -4 -23 -2 -23 8 0 23 9 27
41 15 24 -10 32 -9 39 3 14 21 12 28 -10 50 -21 21 -64 26 -92 9z"/>
<path d="M11750 6351 c0 -68 10 -95 26 -69 5 7 8 31 9 53 0 36 3 40 25 40 22
0 25 -5 26 -35 1 -55 3 -60 19 -60 12 0 15 13 15 60 0 68 -12 80 -79 80 l-41
0 0 -69z"/>
<path d="M11918 6409 c-27 -15 -25 -103 3 -122 11 -8 29 -13 40 -10 14 4 19 0
19 -15 0 -24 21 -43 37 -34 9 5 10 35 6 100 l-6 92 -41 0 c-23 0 -49 -5 -58
-11z m67 -59 c0 -18 -6 -26 -23 -28 -24 -4 -38 18 -28 44 3 9 15 14 28 12 17
-2 23 -10 23 -28z"/>
<path d="M12057 6414 c-12 -12 -8 -63 8 -100 14 -34 16 -35 62 -32 l48 3 6 55
c4 38 2 59 -6 69 -21 22 -35 3 -35 -45 0 -38 -3 -45 -17 -42 -13 2 -19 16 -23
48 -5 43 -24 62 -43 44z"/>
<path d="M6916 5715 c-8 -8 -19 -15 -24 -15 -18 0 -61 -49 -81 -93 -20 -44
-21 -63 -21 -404 0 -339 1 -360 20 -396 22 -41 40 -61 88 -94 l31 -23 2819 0
c2668 0 2819 1 2841 18 29 22 61 54 84 83 15 21 17 57 17 420 l0 396 -36 42
c-20 22 -51 50 -69 61 -32 20 -43 20 -2843 20 -2485 0 -2812 -2 -2826 -15z
m5661 -52 c63 -36 63 -35 63 -463 l0 -389 -37 -36 -36 -35 -2824 0 c-1739 0
-2823 4 -2823 9 0 5 -9 13 -20 16 -11 4 -29 25 -40 48 -19 38 -20 62 -20 399
0 395 -2 382 64 440 l31 27 2807 1 c2604 0 2808 -1 2835 -17z"/>
<path d="M8085 5328 c-4 -10 -2 -111 4 -195 1 -7 7 -13 15 -13 11 0 15 22 18
98 4 91 -2 122 -24 122 -5 0 -11 -6 -13 -12z"/>
<path d="M10977 5334 c-4 -4 -7 -54 -7 -111 0 -80 3 -103 14 -103 19 0 30 189
12 208 -7 7 -15 9 -19 6z"/>
<path d="M11186 5332 c-3 -3 -6 -50 -6 -104 0 -81 3 -100 16 -105 25 -9 31 11
32 111 1 84 -1 95 -18 99 -10 3 -21 2 -24 -1z"/>
<path d="M11654 5311 c-4 -17 -11 -34 -15 -37 -5 -3 -9 -12 -9 -20 0 -14 -30
-90 -50 -126 -16 -29 -12 -38 20 -38 26 0 30 4 36 38 4 20 10 42 14 47 4 6 11
25 15 44 12 56 52 89 72 59 4 -7 6 -42 4 -79 -1 -47 2 -69 12 -77 26 -22 41
11 34 75 -7 66 4 93 38 93 28 0 28 1 29 -95 1 -63 3 -70 21 -70 17 0 20 8 23
45 4 66 9 75 28 59 11 -9 14 -23 11 -45 -6 -35 13 -71 31 -60 41 25 12 142
-37 148 -20 2 -27 9 -29 29 -3 26 -4 26 -90 28 -48 0 -102 4 -120 7 -30 6 -32
4 -38 -25z"/>
<path d="M7235 5320 c-3 -5 5 -21 19 -35 23 -23 26 -34 26 -95 0 -68 1 -70 25
-70 24 0 25 2 25 67 0 58 3 70 26 94 14 15 23 32 20 38 -9 14 -133 15 -141 1z"/>
<path d="M7735 5320 c-4 -6 -2 -17 4 -24 6 -7 8 -16 4 -19 -11 -12 -40 -7 -53
8 -18 21 -48 19 -55 -5 -5 -16 -10 -18 -25 -10 -48 26 -90 -7 -90 -72 0 -66
52 -112 87 -77 17 17 4 39 -23 39 -17 0 -25 7 -30 25 -8 32 8 52 46 57 33 5
40 -5 40 -56 0 -49 35 -77 81 -67 50 11 59 18 59 47 0 34 19 30 32 -7 11 -33
49 -53 79 -44 30 10 24 43 -8 47 -25 3 -28 7 -28 38 0 31 3 35 25 35 28 0 41
32 16 41 -32 12 -67 -6 -82 -41 -8 -19 -18 -35 -22 -35 -4 0 -13 19 -19 43 -9
34 -9 45 3 58 8 9 11 19 7 22 -10 11 -41 8 -48 -3z m-5 -126 c0 -32 -4 -44
-15 -44 -33 0 -47 72 -18 89 26 14 33 5 33 -45z"/>
<path d="M8380 5310 c0 -10 9 -24 20 -30 16 -8 20 -23 22 -83 3 -70 4 -72 31
-75 l27 -3 0 74 c0 54 4 78 15 87 8 7 15 21 15 31 0 17 -8 19 -65 19 -58 0
-65 -2 -65 -20z"/>
<path d="M8539 5326 c-7 -7 -2 -196 5 -203 3 -3 12 -3 21 0 11 5 15 20 15 56
0 35 4 51 16 55 27 10 34 -3 34 -60 0 -41 4 -54 15 -54 12 0 15 14 15 64 0 54
-3 67 -21 79 -11 8 -29 13 -39 10 -14 -4 -19 1 -22 23 -3 26 -26 43 -39 30z"/>
<path d="M9170 5320 c0 -5 -6 -10 -14 -10 -22 0 -46 -46 -46 -89 0 -31 7 -47
35 -77 30 -32 39 -36 67 -30 49 10 77 50 78 113 0 47 -3 54 -33 77 -34 26 -87
35 -87 16z m55 -52 c19 -8 25 -19 25 -41 0 -33 -24 -67 -48 -67 -38 0 -55 69
-25 102 19 21 16 21 48 6z"/>
<path d="M9542 5318 c-8 -8 -12 -46 -12 -106 0 -90 1 -93 22 -90 15 2 24 13
30 37 7 23 18 36 38 44 28 11 40 32 40 73 0 41 -88 72 -118 42z m76 -61 c2
-12 -3 -17 -17 -17 -12 0 -21 6 -21 13 0 31 32 34 38 4z"/>
<path d="M9936 5322 c-3 -5 -1 -34 3 -66 4 -32 6 -69 3 -82 -6 -34 14 -54 57
-54 89 1 100 139 11 152 -19 2 -26 10 -28 31 -2 19 -9 27 -22 27 -10 0 -21 -4
-24 -8z m78 -88 c20 -8 21 -48 1 -64 -20 -16 -35 -4 -35 29 0 38 7 45 34 35z"/>
<path d="M10382 5318 c-8 -8 -12 -46 -12 -105 0 -86 1 -93 20 -93 13 0 22 9
26 28 10 49 13 52 44 58 21 5 32 14 36 30 8 33 -3 74 -21 74 -8 0 -15 5 -15
10 0 14 -64 12 -78 -2z m76 -61 c2 -11 -3 -17 -17 -17 -23 0 -35 15 -26 31 10
15 39 6 43 -14z"/>
<path d="M10896 5322 c-2 -4 -1 -50 2 -102 6 -75 10 -95 22 -95 12 0 16 19 18
103 3 96 2 102 -17 102 -11 0 -22 -3 -25 -8z"/>
<path d="M11360 5321 c0 -5 -8 -11 -18 -13 -27 -7 -55 -72 -47 -108 4 -16 19
-43 35 -60 39 -41 73 -40 116 6 28 29 34 43 34 79 0 35 -6 49 -31 74 -29 30
-89 44 -89 22z m55 -53 c31 -14 34 -59 5 -88 -24 -24 -38 -25 -62 -3 -25 23
-23 68 4 87 27 19 21 19 53 4z"/>
<path d="M7402 5269 c-29 -11 -21 -25 19 -34 36 -8 27 -22 -16 -27 -25 -2 -30
-8 -33 -34 -4 -40 19 -59 66 -56 44 3 52 14 52 73 0 35 -5 51 -23 67 -26 24
-31 25 -65 11z m30 -104 c0 -5 -5 -11 -11 -13 -6 -2 -11 4 -11 13 0 9 5 15 11
13 6 -2 11 -8 11 -13z"/>
<path d="M7958 5273 c-27 -7 -21 -31 7 -35 35 -4 36 -22 3 -26 -31 -4 -42 -27
-32 -67 6 -24 10 -26 53 -23 l46 3 0 67 c0 36 -2 69 -5 71 -9 9 -54 15 -72 10z"/>
<path d="M8168 5269 c-30 -17 -13 -89 21 -89 6 0 11 -7 11 -15 0 -12 -4 -13
-19 -6 -18 10 -31 -2 -31 -29 0 -13 42 -20 61 -9 45 24 43 89 -2 89 -28 0 -19
24 10 28 31 5 23 36 -9 39 -14 2 -33 -2 -42 -8z"/>
<path d="M8266 5265 c-3 -9 -1 -25 5 -36 8 -17 13 -18 25 -8 19 16 14 53 -7
57 -9 2 -19 -4 -23 -13z"/>
<path d="M8717 5256 c-62 -57 -7 -164 70 -135 30 11 22 25 -17 31 -32 4 -24
23 10 23 21 1 25 6 28 35 3 43 -5 56 -39 65 -18 5 -32 0 -52 -19z m58 -25 c8
-14 -13 -24 -33 -16 -14 5 -14 7 -2 15 19 12 27 12 35 1z"/>
<path d="M8875 5271 c-30 -6 -30 -7 -33 -79 -3 -66 -1 -73 15 -70 14 2 19 15
23 53 4 42 8 50 28 53 21 3 22 0 22 -52 0 -42 4 -56 15 -56 18 0 30 58 22 107
-4 19 -7 37 -9 38 -8 9 -57 12 -83 6z"/>
<path d="M9338 5269 c-24 -14 -27 -149 -3 -149 10 0 15 10 15 33 0 53 10 73
42 85 26 10 29 14 18 27 -14 17 -47 19 -72 4z"/>
<path d="M9799 5258 c-11 -20 -13 -20 -24 -5 -8 11 -26 17 -52 17 l-41 0 -4
-62 c-6 -73 -2 -90 21 -86 11 2 17 16 19 48 4 47 16 70 38 70 10 0 14 -13 14
-40 0 -52 40 -95 80 -85 14 4 25 7 26 8 0 1 10 16 22 34 29 41 28 52 -7 91
-36 38 -75 43 -92 10z m60 -36 c12 -22 3 -62 -13 -62 -31 0 -51 62 -23 73 21
9 26 8 36 -11z"/>
<path d="M10123 5265 c-27 -19 -38 -70 -24 -108 13 -33 54 -52 82 -37 28 16
23 30 -11 30 -46 0 -39 28 8 32 30 2 38 7 40 26 4 27 -32 72 -58 72 -8 0 -25
-7 -37 -15z m42 -36 c10 -15 -1 -23 -20 -15 -9 3 -13 10 -10 16 8 13 22 13 30
-1z"/>
<path d="M10680 5271 c-23 -6 -25 -12 -28 -73 -2 -54 0 -67 14 -72 23 -9 34
10 34 61 0 33 4 43 21 48 12 4 19 14 17 23 -4 19 -22 23 -58 13z"/>
<path d="M10764 5266 c-20 -16 -15 -21 31 -28 28 -5 21 -22 -10 -26 -34 -5
-51 -37 -34 -68 10 -20 20 -24 55 -24 41 0 43 1 50 35 10 56 -3 104 -32 115
-33 13 -37 13 -60 -4z m47 -99 c-1 -12 -15 -9 -19 4 -3 6 1 10 8 8 6 -3 11 -8
11 -12z"/>
<path d="M11080 5273 c-47 -19 -64 -90 -31 -130 18 -21 35 -26 79 -24 31 1 28
29 -5 33 -14 2 -29 9 -31 17 -3 10 2 13 22 9 22 -4 29 -1 36 18 10 26 -3 74
-19 74 -5 0 -15 2 -23 4 -7 3 -20 2 -28 -1z m35 -42 c7 -12 -12 -24 -25 -16
-11 7 -4 25 10 25 5 0 11 -4 15 -9z"/>
<path d="M11528 5273 c-15 -4 -18 -16 -18 -79 0 -59 3 -74 15 -74 11 0 15 11
15 39 0 54 8 71 39 83 25 9 25 10 7 24 -20 14 -28 15 -58 7z"/>
<path d="M12049 5273 c-42 -11 -52 -101 -14 -138 27 -28 37 -30 66 -14 25 13
16 29 -17 29 -15 0 -24 6 -24 15 0 10 11 15 35 15 29 0 36 4 41 25 5 20 0 31
-20 50 -27 25 -35 27 -67 18z m36 -44 c10 -15 -1 -23 -20 -15 -9 3 -13 10 -10
16 8 13 22 13 30 -1z"/>
<path d="M12183 5270 c-21 -8 -22 -15 -20 -77 2 -55 5 -68 20 -71 14 -3 17 5
17 52 0 30 4 57 8 60 18 11 31 -12 34 -59 3 -42 6 -50 24 -53 26 -4 34 21 27
77 -9 68 -51 95 -110 71z"/>
<path d="M10515 5260 c-6 -10 4 -16 38 -22 28 -5 25 -23 -5 -26 -15 -2 -34
-14 -42 -27 -15 -23 -15 -26 1 -45 13 -14 30 -20 61 -20 l43 0 -3 73 -3 72
-42 3 c-22 2 -44 -2 -48 -8z m55 -95 c0 -8 -4 -15 -10 -15 -5 0 -10 7 -10 15
0 8 5 15 10 15 6 0 10 -7 10 -15z"/>
<path d="M8272 5148 c4 -43 33 -46 33 -3 0 21 -5 31 -18 33 -15 3 -18 -2 -15
-30z"/>
<path d="M9006 5161 c-9 -10 -18 -31 -19 -47 -3 -41 26 -43 50 -3 34 52 8 93
-31 50z"/>
<path d="M9396 5161 c-9 -10 -18 -31 -19 -47 -3 -41 26 -43 50 -3 34 52 8 93
-31 50z"/>
<path d="M10236 5139 c-23 -51 -10 -68 28 -38 19 15 26 29 24 48 -5 42 -32 37
-52 -10z"/>
<path d="M5625 6379 c-4 -6 -6 -45 -5 -87 2 -42 2 -85 1 -94 -1 -17 -38 -18
-619 -18 -467 0 -621 -3 -630 -12 -9 -9 -12 -70 -12 -213 0 -184 2 -203 19
-219 16 -15 73 -17 632 -19 l614 -2 -3 -77 c-4 -84 2 -118 23 -118 15 0 445
417 445 432 0 13 -433 438 -447 438 -6 0 -15 -5 -18 -11z m65 -68 c0 -6 78
-88 173 -184 l173 -175 -180 -184 c-100 -101 -183 -182 -186 -180 -3 2 -5 41
-5 85 l0 82 -627 3 -627 2 -3 183 c-2 100 -2 185 0 190 2 4 284 7 627 7 l623
0 7 30 c4 17 4 53 0 80 -4 27 -4 54 0 60 8 13 25 13 25 1z"/>
<path d="M1796 5411 c-51 -34 -74 -70 -81 -124 -4 -29 -5 -168 -3 -309 l3
-258 45 -45 45 -44 943 -1 943 0 34 26 c19 14 43 41 54 60 20 33 21 51 21 308
0 303 0 306 -67 367 l-38 34 -935 3 c-907 2 -936 1 -964 -17z m1903 -48 c47
-28 53 -65 49 -360 -3 -248 -4 -263 -24 -290 l-21 -28 -947 -3 -946 -2 -22 22
c-23 23 -23 25 -23 326 0 292 1 304 20 317 11 8 25 19 30 24 6 6 337 10 932
11 856 0 924 -1 952 -17z"/>
<path d="M2251 5104 c-26 -33 -16 -54 40 -90 45 -28 42 -49 -6 -41 -35 6 -57
-7 -48 -29 6 -17 75 -19 104 -4 33 18 25 70 -16 103 -38 30 -38 47 0 47 32 0
40 16 16 29 -34 19 -68 13 -90 -15z"/>
<path d="M2397 5123 c-4 -3 -7 -48 -7 -100 0 -74 3 -93 14 -93 11 0 16 15 18
52 3 52 28 84 28 35 0 -36 29 -89 48 -85 9 2 23 25 32 51 21 59 35 57 35 -3 0
-35 4 -45 18 -48 19 -4 19 -5 19 102 -1 43 -4 82 -9 87 -16 16 -53 -2 -53 -26
0 -12 -7 -28 -15 -35 -8 -7 -15 -21 -15 -31 0 -35 -18 -29 -39 14 -12 24 -21
50 -21 59 0 21 -38 37 -53 21z"/>
<path d="M2637 5123 c-15 -14 -6 -33 19 -39 25 -6 26 -9 22 -72 -2 -52 0 -67
14 -75 26 -17 31 -3 32 76 1 71 1 72 29 75 l27 3 0 -75 c0 -88 4 -91 105 -81
l65 7 0 89 c0 88 0 89 -25 89 -24 0 -25 -2 -25 -75 0 -71 -1 -75 -22 -75 -43
0 -50 13 -47 81 l4 64 -50 7 c-68 9 -140 9 -148 1z"/>
<path d="M2993 5117 c-5 -7 -7 -51 -5 -99 l3 -88 40 0 c70 0 79 11 77 91 -3
83 -19 107 -72 107 -19 0 -39 -5 -43 -11z m74 -43 c5 -15 -28 -27 -40 -15 -5
5 -6 14 -2 21 8 13 37 9 42 -6z m-3 -63 c20 -22 14 -41 -14 -41 -24 0 -31 11
-23 38 7 27 15 28 37 3z"/>
<path d="M3151 5121 c-16 -11 -7 -43 11 -40 50 6 51 -34 4 -87 -19 -21 -32
-44 -29 -51 7 -19 119 -18 126 1 7 19 -1 26 -30 26 -25 0 -32 24 -10 33 8 3
21 20 29 38 15 30 15 34 -5 61 -21 29 -66 38 -96 19z"/>
<path d="M4627 4746 c-9 -13 -22 -29 -29 -37 -7 -8 -31 -36 -53 -64 -22 -27
-43 -52 -46 -55 -27 -23 -129 -152 -129 -163 0 -8 10 -22 23 -30 12 -9 36 -27
52 -42 17 -15 50 -43 74 -63 94 -77 177 -147 201 -169 14 -13 28 -23 31 -23 3
0 17 -10 31 -22 85 -77 106 -95 129 -110 14 -9 33 -23 41 -32 22 -22 99 -87
137 -116 17 -14 43 -35 57 -47 14 -13 57 -49 97 -80 39 -32 78 -65 87 -73 9
-8 32 -28 53 -44 20 -16 37 -34 37 -40 0 -11 -47 -69 -90 -111 -11 -12 -20
-30 -20 -41 0 -20 4 -21 123 -17 67 3 147 9 177 15 30 5 112 13 183 17 70 4
130 10 133 14 13 13 15 94 4 157 -6 36 -15 130 -20 209 -5 79 -14 157 -19 174
-6 16 -11 43 -11 59 0 28 -30 53 -37 31 -2 -6 -13 -21 -24 -34 -10 -12 -34
-42 -52 -65 -35 -48 -48 -52 -75 -26 -39 36 -99 89 -147 127 -45 37 -91 75
-119 100 -6 6 -34 28 -61 50 -48 39 -60 48 -135 114 -19 17 -38 31 -41 31 -3
0 -17 10 -31 23 -56 51 -117 103 -138 117 -12 8 -38 30 -58 48 -20 18 -64 54
-97 80 -61 48 -79 63 -150 126 -47 42 -67 45 -88 12z m153 -126 c29 -25 58
-50 64 -55 6 -6 33 -28 61 -50 27 -22 55 -44 61 -50 32 -29 74 -64 119 -100
46 -37 91 -75 119 -100 6 -5 34 -28 61 -50 28 -22 61 -50 75 -62 26 -22 67
-57 85 -70 11 -9 188 -156 245 -203 37 -32 74 -39 87 -16 16 27 67 86 74 86
16 0 29 -79 30 -185 0 -60 5 -135 10 -165 6 -30 13 -76 16 -101 l5 -46 -139
-5 c-76 -3 -148 -10 -158 -15 -11 -6 -62 -13 -112 -17 -101 -7 -115 1 -72 40
12 10 34 36 50 56 l30 37 -73 58 c-40 32 -80 65 -88 73 -19 17 -45 39 -115 95
-27 22 -56 47 -65 55 -20 18 -49 42 -115 95 -27 22 -55 45 -61 50 -28 25 -73
63 -119 100 -48 39 -60 49 -135 114 -19 17 -38 31 -41 31 -3 0 -22 15 -41 33
-57 52 -91 81 -120 100 -29 18 -88 73 -88 81 0 2 6 11 13 18 6 7 25 29 41 48
42 52 97 118 128 154 15 17 30 39 34 49 5 16 9 15 43 -10 21 -15 62 -48 91
-73z"/>
<path d="M2560 4335 c-7 -8 -12 -25 -12 -37 -1 -13 0 -213 1 -446 1 -232 -1
-427 -4 -432 -3 -6 -49 -10 -101 -10 -92 0 -94 -1 -94 -23 0 -17 57 -80 205
-228 113 -112 214 -205 224 -207 24 -4 428 397 437 433 6 24 6 24 -93 27 l-98
3 -3 455 c-2 414 -4 456 -19 468 -27 19 -426 17 -443 -3z m378 -38 l33 -2 0
-450 c-1 -264 3 -456 8 -465 8 -11 29 -13 92 -11 78 2 82 2 68 -15 -22 -28
-351 -354 -357 -354 -11 0 -352 346 -352 358 0 10 16 13 63 11 34 -2 72 1 85
5 l22 7 0 458 c0 252 2 460 4 462 4 4 264 1 334 -4z"/>
<path d="M7180 4253 c-25 -3 -49 -8 -54 -14 -6 -5 -30 -9 -55 -9 -26 0 -59 -7
-75 -15 -15 -8 -36 -15 -45 -15 -9 0 -21 -4 -26 -9 -6 -6 -32 -21 -58 -35 -54
-29 -56 -30 -144 -111 -65 -60 -121 -134 -157 -210 -10 -22 -25 -52 -33 -67
-7 -14 -13 -39 -13 -55 0 -16 -6 -35 -12 -41 -10 -10 -13 -335 -13 -1557 0
-1222 3 -1547 13 -1556 6 -7 12 -28 12 -45 0 -18 7 -39 15 -48 8 -8 15 -22 15
-32 0 -18 39 -87 52 -92 4 -2 8 -9 8 -16 0 -17 27 -50 101 -125 76 -75 108
-101 126 -101 7 0 13 -4 13 -10 0 -5 11 -12 25 -16 14 -3 25 -10 25 -14 0 -5
15 -12 33 -15 17 -4 37 -11 42 -15 6 -4 30 -11 55 -16 59 -11 5311 -11 5370 0
25 5 50 12 55 16 6 4 25 11 43 15 17 3 32 10 32 15 0 4 12 11 26 14 15 4 32
12 39 19 7 7 23 19 36 27 55 35 200 195 208 228 2 9 9 22 17 30 8 7 14 22 14
31 0 10 7 24 15 31 8 7 15 24 15 39 0 15 6 33 13 39 9 10 13 343 15 1584 2
1385 0 1574 -13 1601 -8 16 -15 40 -15 53 0 12 -7 29 -15 38 -8 8 -15 20 -15
26 0 14 -39 85 -65 119 -11 14 -57 63 -102 107 -63 63 -99 90 -160 119 -43 21
-87 42 -97 48 -11 5 -45 13 -75 18 -31 4 -76 12 -101 18 -43 10 -4979 13
-5090 4z m5091 -53 c10 -6 48 -13 84 -17 36 -3 65 -9 65 -13 0 -4 12 -11 28
-14 15 -4 56 -21 91 -39 69 -35 203 -157 239 -217 47 -80 72 -134 72 -154 0
-12 7 -34 15 -50 13 -25 15 -224 15 -1587 0 -964 -4 -1560 -9 -1564 -6 -3 -13
-25 -17 -50 -3 -24 -12 -50 -20 -56 -8 -6 -14 -19 -14 -29 0 -10 -7 -23 -15
-30 -8 -7 -15 -17 -15 -22 0 -15 -58 -88 -117 -144 -51 -50 -163 -124 -186
-124 -7 0 -21 -6 -32 -14 -11 -7 -40 -17 -65 -21 -25 -4 -57 -14 -72 -21 -41
-21 -5166 -21 -5206 0 -15 8 -48 17 -74 21 -26 4 -53 13 -59 21 -6 8 -22 14
-35 14 -13 0 -24 4 -24 8 0 4 -12 13 -27 20 -16 7 -41 20 -58 29 -34 18 -175
157 -175 172 0 6 -13 30 -30 54 -16 25 -30 51 -30 59 0 8 -7 23 -15 34 -8 10
-15 31 -15 46 0 15 -7 45 -15 65 -13 33 -15 221 -12 1548 3 1594 2 1550 46
1650 42 94 46 101 81 144 11 13 20 28 20 33 0 9 67 76 100 98 12 8 31 23 42
32 12 10 38 25 59 35 22 9 39 20 39 25 0 4 9 8 21 8 12 0 35 6 52 14 18 8 57
17 87 21 30 3 62 10 70 15 22 14 5085 13 5111 0z"/>
<path d="M9312 3877 c-32 -34 -27 -54 23 -89 24 -17 42 -35 39 -40 -3 -4 -23
-8 -44 -8 -21 0 -41 -4 -45 -9 -6 -10 46 -51 64 -51 23 0 59 31 65 56 8 29 -9
64 -29 64 -13 0 -35 29 -35 45 0 4 12 5 27 3 21 -2 29 2 31 16 8 40 -62 49
-96 13z"/>
<path d="M9588 3890 c-1 -5 -2 -50 0 -100 3 -79 6 -91 20 -88 14 3 18 20 24
93 4 49 4 93 2 97 -7 11 -42 10 -46 -2z"/>
<path d="M9456 3827 c-12 -9 -18 -27 -18 -60 -1 -37 4 -50 23 -66 30 -26 48
-26 78 0 32 26 35 104 6 125 -24 18 -66 18 -89 1z m72 -50 c6 -28 -16 -49 -39
-36 -19 10 -25 39 -12 53 13 13 48 1 51 -17z"/>
<path d="M9823 3828 c-19 -9 -23 -19 -23 -59 0 -41 4 -50 29 -68 36 -26 39
-26 67 0 18 17 21 26 13 40 -6 13 -6 19 1 19 5 0 10 13 10 30 0 45 -46 63 -97
38z m57 -58 c9 -17 8 -20 -9 -20 -22 0 -35 15 -26 30 10 16 23 12 35 -10z"/>
<path d="M9955 3832 c-10 -10 -5 -131 6 -137 17 -11 24 4 24 47 0 48 27 75 48
47 7 -8 20 -18 30 -22 20 -8 14 -27 -9 -27 -23 0 -16 -35 10 -49 20 -11 28
-10 50 4 37 24 36 67 -1 82 -28 11 -28 11 -5 18 12 4 22 15 22 25 0 15 -11 17
-85 17 -46 0 -87 -2 -90 -5z"/>
<path d="M9640 3824 c0 -3 9 -17 20 -31 11 -14 20 -36 20 -48 0 -22 28 -55 46
-55 12 0 39 61 49 108 6 28 4 32 -14 32 -17 0 -21 -6 -21 -29 0 -44 -17 -47
-34 -6 -12 27 -21 35 -40 35 -15 0 -26 -3 -26 -6z"/>
<path d="M7075 3579 c-50 -27 -105 -84 -105 -109 0 -10 -4 -22 -10 -25 -6 -4
-10 -138 -10 -369 0 -341 1 -365 20 -402 24 -48 37 -63 77 -91 l32 -23 1110 0
1109 0 45 40 c79 71 77 60 77 477 l0 368 -30 47 c-17 28 -50 61 -78 78 l-47
30 -1075 0 -1075 0 -40 -21z m2219 -50 c19 -11 44 -36 55 -55 20 -34 21 -49
21 -398 0 -321 -2 -367 -17 -397 -37 -75 69 -68 -1166 -69 l-1108 0 -28 28
c-55 53 -61 94 -61 434 0 373 9 420 89 462 21 11 216 14 1103 15 1071 1 1077
1 1112 -20z"/>
<path d="M7946 3167 c-38 -28 -19 -82 42 -116 25 -14 3 -31 -39 -31 -51 0 -53
-25 -3 -39 40 -11 81 0 90 24 8 19 24 19 24 0 0 -10 10 -15 26 -15 25 0 26 1
20 45 l-7 45 25 -24 c15 -13 26 -34 26 -50 0 -18 5 -26 18 -26 27 0 42 20 42
58 0 45 24 38 28 -9 4 -41 16 -56 34 -41 20 16 12 181 -9 189 -21 8 -52 -34
-53 -69 0 -17 -8 -31 -19 -38 -30 -16 -41 -12 -41 14 0 35 -28 96 -44 96 -29
0 -48 -31 -42 -69 4 -20 2 -43 -3 -51 -9 -13 -12 -12 -28 3 -10 10 -26 23 -35
30 -28 20 -27 42 2 42 18 0 25 5 25 20 0 25 -51 33 -79 12z"/>
<path d="M8313 3174 c-23 -10 -14 -33 15 -36 27 -3 27 -3 23 -71 -3 -71 8
-100 35 -90 12 4 15 21 13 76 l-2 71 32 9 c23 5 31 13 29 25 -3 14 -16 17 -68
19 -36 1 -71 -1 -77 -3z"/>
<path d="M10153 3539 c-22 -16 -53 -49 -67 -73 l-26 -45 0 -371 0 -371 26 -45
c15 -25 42 -57 62 -72 l35 -27 1107 -3 1106 -2 57 51 c31 28 57 59 57 69 0 10
5 22 10 25 6 4 10 136 10 363 0 413 0 412 -81 485 l-53 47 -1100 -1 -1101 -1
-42 -29z m2277 -50 l35 -31 3 -389 c2 -343 1 -394 -14 -424 -9 -19 -24 -37
-35 -40 -10 -4 -19 -11 -19 -16 0 -5 -428 -9 -1105 -9 -677 0 -1105 4 -1105 9
0 5 -9 12 -19 16 -11 3 -29 22 -40 41 -20 34 -21 49 -21 404 0 355 1 370 21
404 11 19 29 38 40 41 10 4 19 11 19 16 0 5 427 9 1103 9 l1102 0 35 -31z"/>
<path d="M11232 3158 c-7 -7 -12 -18 -12 -25 0 -6 -16 -19 -35 -28 -19 -10
-37 -25 -40 -36 -9 -26 -19 -24 -48 11 -32 37 -52 38 -84 3 -19 -19 -23 -33
-19 -54 6 -30 -7 -48 -20 -28 -4 7 -6 29 -6 51 2 40 -3 44 -28 28 -11 -7 -19
-4 -32 13 -16 20 -17 21 -24 4 -4 -10 -1 -29 7 -43 11 -21 10 -29 -4 -53 -14
-25 -15 -30 -3 -41 12 -9 17 -7 26 10 10 19 13 20 28 7 20 -17 131 -30 151
-18 21 13 4 31 -30 31 -19 0 -29 5 -29 15 0 11 12 15 45 15 42 0 47 -3 67 -36
21 -35 22 -36 67 -29 25 4 48 11 51 15 3 4 5 50 5 101 0 91 -8 112 -33 87z
m-11 -147 c-14 -25 -24 -26 -41 -6 -10 12 -10 21 -1 42 l12 26 21 -20 c16 -17
18 -24 9 -42z"/>
<path d="M10683 3143 c-14 -10 -21 -169 -7 -183 5 -5 19 -7 32 -4 18 5 22 13
22 45 0 33 4 40 25 45 30 8 28 26 -4 34 -34 8 -30 25 7 28 25 3 32 8 30 20 -2
12 -15 18 -48 20 -25 1 -50 -1 -57 -5z"/>
<path d="M10819 3138 c-2 -7 -4 -51 -4 -98 0 -69 3 -85 15 -85 12 0 16 19 20
88 3 48 4 92 2 97 -5 14 -29 12 -33 -2z"/>
<path d="M11604 3135 c-4 -9 -2 -21 4 -27 16 -16 47 -5 47 17 0 26 -42 34 -51
10z"/>
<path d="M11837 3120 c-8 -30 8 -136 22 -154 18 -21 60 -20 68 1 4 9 2 18 -4
20 -5 2 -18 10 -28 17 -18 13 -18 15 3 50 28 47 28 48 -7 69 -37 22 -48 21
-54 -3z"/>
<path d="M11330 3101 c-23 -6 -25 -12 -31 -91 -4 -47 -4 -90 -2 -97 9 -23 32
-14 35 15 2 22 8 27 30 28 43 2 58 21 58 73 0 67 -28 89 -90 72z m55 -76 c0
-21 -5 -31 -19 -33 -26 -5 -40 12 -32 43 5 20 12 26 29 23 17 -2 22 -10 22
-33z"/>
<path d="M11472 3087 c-15 -16 -22 -36 -22 -65 0 -53 31 -78 85 -68 30 6 35
12 41 42 7 38 20 35 26 -6 3 -25 33 -39 48 -23 12 12 -3 116 -17 120 -7 3 -18
-7 -24 -21 -13 -28 -29 -35 -29 -13 0 20 -43 57 -66 57 -11 0 -30 -10 -42 -23z
m63 -62 c0 -23 -5 -30 -19 -30 -28 0 -43 29 -26 50 21 25 45 14 45 -20z"/>
<path d="M11720 3101 c-22 -6 -26 -14 -31 -66 -6 -64 4 -93 27 -75 8 7 11 24
7 44 -3 22 0 36 11 45 26 22 46 -2 39 -46 -4 -24 -2 -38 8 -43 22 -14 29 -1
29 56 0 41 -5 59 -20 74 -21 21 -29 22 -70 11z"/>
<path d="M7106 2295 c-8 -8 -23 -15 -32 -15 -27 0 -104 -80 -104 -107 0 -13
-4 -23 -10 -23 -6 0 -10 -132 -10 -375 0 -243 4 -375 10 -375 6 0 10 -9 10
-20 0 -28 71 -99 111 -111 44 -13 2161 -13 2206 0 33 10 103 70 103 89 0 6 6
12 13 15 9 3 12 92 12 402 0 310 -3 399 -12 403 -7 2 -13 9 -13 16 0 20 -62
73 -112 95 -47 21 -51 21 -1102 21 -924 0 -1056 -2 -1070 -15z m2142 -45 c9
-5 33 -16 53 -25 67 -29 69 -44 69 -452 0 -385 -1 -394 -51 -439 -21 -18 -52
-19 -1134 -19 l-1113 0 -24 23 c-51 47 -58 101 -58 442 0 271 2 319 18 363 18
53 43 87 65 87 6 1 23 7 37 15 21 12 183 14 1073 15 644 0 1054 -4 1065 -10z"/>
<path d="M8176 1865 c-14 -13 -26 -31 -26 -39 0 -18 37 -55 67 -67 13 -5 20
-14 17 -22 -3 -10 -24 -14 -72 -13 l-67 1 -3 78 c-3 74 -4 78 -25 75 -21 -3
-22 -8 -22 -83 0 -110 7 -125 62 -125 23 0 43 5 43 10 0 6 7 10 15 10 8 0 15
-4 15 -10 0 -19 47 -10 75 15 21 21 26 31 20 53 -4 15 -7 27 -8 28 -21 6 -57
38 -57 50 0 12 7 14 30 9 26 -6 30 -4 30 14 0 20 -26 41 -53 41 -8 0 -26 -11
-41 -25z"/>
<path d="M7846 1828 c-12 -106 -6 -158 19 -158 18 0 28 34 20 70 -4 16 -2 37
4 47 9 16 11 15 20 -9 5 -14 15 -29 20 -33 6 -3 11 -13 11 -21 0 -18 41 -55
52 -47 5 2 8 49 8 104 0 81 -3 99 -15 99 -12 0 -15 -13 -15 -55 0 -30 -4 -55
-10 -55 -5 0 -21 25 -35 55 -21 43 -31 55 -49 55 -20 0 -24 -6 -30 -52z"/>
<path d="M8446 1841 c-12 -23 -14 -36 -6 -50 5 -11 10 -36 10 -56 0 -39 32
-77 57 -68 19 8 16 30 -9 64 l-23 31 23 18 c12 10 22 21 22 23 0 3 -13 20 -29
38 l-29 31 -16 -31z"/>
<path d="M8318 1823 c-27 -7 -21 -23 12 -34 34 -12 31 -29 -6 -29 -21 0 -24
-5 -24 -33 0 -48 34 -66 80 -42 31 16 32 19 28 66 -7 72 -28 88 -90 72z"/>
<path d="M10141 2244 c-85 -75 -81 -53 -81 -482 0 -325 2 -383 15 -396 8 -8
15 -19 15 -24 0 -17 44 -57 88 -80 l43 -22 1076 0 1076 0 36 22 c49 30 101 85
101 108 0 10 5 22 10 25 6 4 10 138 10 370 0 232 -4 366 -10 370 -5 3 -10 16
-10 27 0 13 -21 41 -52 70 l-52 48 -1112 0 -1111 0 -42 -36z m2290 -45 l34
-30 3 -388 c2 -240 -1 -398 -7 -414 -6 -14 -28 -38 -50 -52 l-41 -25 -1075 0
-1075 0 -38 24 c-75 47 -72 31 -72 456 0 216 4 380 9 380 5 0 12 11 15 24 3
14 15 28 26 31 11 3 20 11 20 16 0 5 429 9 1108 9 l1108 0 35 -31z"/>
<path d="M11137 1867 c-15 -12 -27 -32 -27 -44 0 -21 46 -63 68 -63 18 0 26
-22 12 -30 -7 -5 -28 -6 -47 -3 -25 4 -33 2 -33 -9 0 -41 79 -65 99 -30 9 15
13 15 32 4 19 -12 24 -11 48 12 35 33 46 33 83 -5 39 -38 62 -25 35 20 -9 16
-17 38 -17 48 0 10 -5 24 -11 30 -6 6 -14 26 -18 45 -5 26 -12 34 -34 36 -22
3 -27 -1 -27 -20 -1 -13 -7 -34 -15 -48 -8 -14 -14 -35 -15 -47 0 -34 -17 -36
-36 -4 -10 16 -28 34 -41 40 -35 16 -30 44 7 39 34 -5 40 11 14 36 -22 22 -46
20 -77 -7z m213 -88 c0 -15 -30 -23 -42 -11 -6 6 -7 15 -4 20 7 12 46 4 46 -9z"/>
<path d="M11398 1879 c-17 -11 -1 -39 22 -39 18 0 20 -6 20 -62 0 -75 8 -108
25 -108 19 0 25 24 25 100 0 64 2 69 23 72 14 2 22 10 22 23 0 18 -7 20 -63
20 -35 0 -69 -3 -74 -6z"/>
<path d="M8740 1120 c-8 -5 -25 -10 -36 -10 -27 0 -114 -76 -114 -99 0 -9 -7
-25 -15 -35 -13 -17 -15 -78 -15 -373 0 -344 1 -353 22 -395 28 -55 68 -95
102 -104 14 -3 29 -10 32 -15 3 -5 465 -9 1084 -9 1008 0 1080 1 1111 17 46
26 81 62 107 111 22 42 22 50 22 401 0 307 -2 360 -15 371 -8 7 -15 20 -15 29
0 26 -81 97 -120 106 -52 12 -2132 17 -2150 5z m2196 -76 c12 -12 24 -33 28
-48 3 -14 11 -26 16 -26 12 0 14 -737 3 -742 -5 -1 -15 -16 -23 -33 -9 -16
-29 -36 -45 -45 -17 -8 -31 -18 -33 -22 -5 -10 -2159 -10 -2164 0 -1 4 -16 14
-33 22 -16 9 -40 34 -52 55 -21 39 -21 50 -22 397 -1 198 3 359 8 362 5 3 12
17 15 31 8 32 38 62 68 68 13 2 516 4 1118 3 l1095 -1 21 -21z"/>
<path d="M9556 676 c-48 -45 -50 -100 -7 -148 l29 -32 113 1 c104 1 115 3 131
23 10 12 18 30 18 39 0 23 -28 61 -45 61 -20 0 -28 17 -17 36 6 11 11 13 16 5
11 -18 36 -13 36 7 0 41 -54 57 -83 24 -30 -33 -15 -86 29 -103 16 -6 24 -15
22 -26 -4 -22 -87 -39 -103 -22 -7 8 -6 13 3 16 14 5 17 93 3 93 -5 0 -13 9
-16 20 -3 11 -13 20 -21 20 -8 0 -14 5 -14 10 0 24 -60 9 -94 -24z m92 -32
c27 -18 28 -51 3 -81 -23 -27 -38 -29 -63 -6 -23 21 -23 72 0 89 22 17 33 17
60 -2z"/>
<path d="M9907 681 c-9 -16 -17 -39 -17 -50 0 -12 -9 -34 -21 -50 -14 -20 -18
-35 -14 -54 9 -35 35 -36 35 -2 0 47 74 46 86 0 3 -14 12 -25 20 -25 19 0 18
59 -1 84 -8 11 -15 26 -15 35 0 24 -33 91 -45 91 -6 0 -18 -13 -28 -29z m40
-75 c-4 -9 -11 -16 -17 -16 -11 0 -14 33 -3 44 11 10 26 -11 20 -28z"/>
<path d="M10000 697 c0 -8 9 -22 20 -32 17 -15 20 -31 20 -92 0 -71 1 -74 23
-71 20 3 22 9 23 67 1 57 4 66 28 83 14 11 26 28 26 39 0 17 -8 19 -70 19 -52
0 -70 -3 -70 -13z"/>
<path d="M1650 2650 c-48 -38 -62 -55 -86 -107 -24 -51 -24 -54 -24 -390 0
-280 3 -343 15 -367 8 -15 15 -34 15 -40 0 -13 60 -73 100 -100 22 -15 118
-16 1114 -16 l1089 0 35 22 c50 30 66 48 91 99 21 43 22 51 19 418 -2 289 -6
375 -15 379 -7 2 -13 11 -13 20 0 10 -14 28 -31 42 -17 14 -40 33 -51 43 -20
16 -88 17 -1127 17 -1082 -1 -1107 -1 -1131 -20z m2240 -39 c0 -5 9 -12 19
-16 11 -3 29 -25 40 -49 20 -40 21 -59 21 -399 l0 -357 -26 -41 c-14 -23 -34
-44 -45 -46 -10 -3 -19 -9 -19 -14 0 -5 -466 -9 -1090 -9 -1019 0 -1092 1
-1118 17 -40 26 -50 38 -58 67 -3 14 -10 29 -15 32 -12 7 -12 701 0 709 5 3
12 19 16 35 4 16 21 41 38 55 l32 25 1103 0 c675 0 1102 -4 1102 -9z"/>
<path d="M2065 2253 c-11 -3 -32 -18 -47 -35 -35 -38 -37 -84 -6 -124 30 -39
38 -44 76 -44 25 0 41 8 63 32 69 76 11 192 -86 171z m56 -53 c25 -14 25 -60
-1 -88 -12 -12 -25 -22 -30 -22 -16 0 -50 43 -50 64 0 23 27 56 47 56 8 0 23
-5 34 -10z"/>
<path d="M3204 2252 c-6 -4 -10 -45 -10 -97 1 -77 3 -90 19 -93 15 -3 17 6 16
92 -1 95 -5 111 -25 98z"/>
<path d="M2457 2243 c-4 -3 -7 -39 -7 -80 0 -72 -3 -79 -34 -67 -20 8 -21 57
-1 74 21 17 19 29 -7 51 -47 38 -60 16 -49 -81 10 -79 22 -91 86 -82 l50 8 -3
54 c-2 30 -8 60 -13 66 -7 9 -5 15 7 22 10 6 15 16 11 26 -6 16 -28 21 -40 9z"/>
<path d="M2754 2235 c-4 -9 -2 -21 4 -27 16 -16 47 -5 47 17 0 26 -42 34 -51
10z"/>
<path d="M3090 2225 c-8 -9 -10 -25 -5 -42 4 -16 9 -47 12 -70 6 -55 24 -70
61 -53 l27 12 -22 15 c-27 18 -31 74 -8 93 14 12 13 16 -6 37 -26 27 -42 29
-59 8z"/>
<path d="M3455 2206 c-41 -15 -45 -22 -45 -89 0 -55 1 -58 23 -55 18 3 22 8
19 37 -3 39 25 81 40 59 4 -7 8 -32 8 -55 0 -45 13 -61 34 -43 13 10 13 53 1
116 -6 29 -43 43 -80 30z"/>
<path d="M2223 2198 c-11 -14 -24 -165 -16 -185 9 -23 32 -13 35 15 2 22 8 27
31 28 36 1 56 29 57 79 0 29 -6 46 -20 58 -24 20 -73 23 -87 5z m69 -53 c8
-19 8 -28 -2 -40 -28 -34 -58 -8 -46 40 8 32 33 32 48 0z"/>
<path d="M2545 2200 c-11 -19 -14 -125 -3 -137 17 -21 28 -5 28 40 0 23 4 48
9 55 13 21 36 -15 36 -57 0 -30 4 -37 23 -39 20 -3 22 0 21 41 -1 24 1 49 5
56 14 22 26 0 26 -49 l0 -48 57 1 57 2 -1 53 c-1 74 -1 72 -23 72 -13 0 -21
-9 -26 -27 -3 -16 -9 -37 -14 -48 -7 -17 -9 -15 -9 12 -1 49 -21 83 -48 83
-12 0 -23 -4 -23 -10 0 -5 -7 -10 -15 -10 -8 0 -15 5 -15 10 0 13 -77 13 -85
0z"/>
<path d="M2836 2202 c-3 -6 1 -15 9 -22 19 -16 19 -39 0 -64 -20 -26 -19 -52
1 -60 20 -8 82 3 90 15 3 5 12 2 21 -6 9 -9 22 -14 30 -11 8 3 26 6 39 6 23 0
24 3 24 58 0 66 -21 96 -62 90 -30 -4 -31 -34 0 -31 12 2 22 -2 22 -7 0 -6 -8
-10 -19 -10 -10 0 -29 -16 -42 -35 -15 -22 -32 -35 -46 -35 -34 0 -31 14 15
65 25 28 10 50 -35 53 -22 2 -44 -1 -47 -6z m179 -91 c3 -5 1 -12 -4 -15 -13
-8 -42 4 -35 15 7 12 31 12 39 0z"/>
<path d="M3278 2191 c-27 -27 -24 -105 4 -125 32 -23 55 -20 85 10 21 21 24
32 20 61 -11 67 -69 95 -109 54z m68 -46 c8 -34 -1 -55 -26 -55 -25 0 -34 21
-26 55 4 16 13 25 26 25 13 0 22 -9 26 -25z"/>
<path d="M4582 2417 c-117 -116 -212 -217 -212 -223 0 -6 97 -106 215 -223
149 -147 220 -211 231 -207 12 5 15 23 13 96 -1 50 1 93 4 96 3 3 281 5 617 4
453 -1 616 2 626 11 20 17 21 431 0 448 -10 8 -180 11 -626 11 -337 -1 -615 2
-618 5 -3 3 -6 47 -6 97 -1 74 -4 93 -16 95 -8 1 -111 -93 -228 -210z m206 57
c-2 -58 0 -77 12 -84 9 -6 251 -10 624 -10 335 1 610 -1 613 -4 6 -5 6 -356 0
-362 -2 -3 -277 -4 -609 -4 -333 0 -613 -3 -622 -6 -13 -5 -16 -21 -16 -83 0
-43 -3 -80 -6 -84 -8 -8 -349 341 -349 358 0 18 337 363 348 358 4 -3 6 -38 5
-79z"/>
</g>
</svg>
